# xmcd
#
# Track frame offsets:
#	150
#	13259
#	29755
#	46128
#	57972
#	82272
#	97772
#	114754
#	134593
#	148613
#	165123
#	195956
#	215188
#
# Disc length: 3192 seconds
# Revision: 0
# Processed by: cddbd v1.5.2PL0 Copyright (c) Steve Scherf et al.
# Submitted via: dBpowerAMP V12.0
#
DISCID=af0c760d
DTITLE=Eamon McGrath - 13 Songs of Wiskey and Light
DYEAR=2009
DGENRE=Blues
TTITLE0=Welcome to the Heart
TTITLE1=Machine Gun Cowboy
TTITLE2=Big River
TTITLE3=File Under Fire
TTITLE4=Last Man Standing
TTITLE5=Cadillac Rosetowne
TTITLE6=Holy Roller
TTITLE7=Desperation, Alberta
TTITLE8=Darby Crash and Burn Guitars
TTITLE9=Land of Dogs
TTITLE10=Chained to my Love
TTITLE11=Cares
TTITLE12=Ecstacy Railings
EXTD=
EXTT0=
EXTT1=
EXTT2=
EXTT3=
EXTT4=
EXTT5=
EXTT6=
EXTT7=
EXTT8=
EXTT9=
EXTT10=
EXTT11=
EXTT12=
PLAYORDER=
